<svg xmlns="http://www.w3.org/2000/svg" version="1.1" xmlns:xlink="http://www.w3.org/1999/xlink" xmlns:svgjs="http://svgjs.dev/svgjs" width="900" height="900"><svg id="SvgjsSvg1010" data-name="Layer 1" xmlns="http://www.w3.org/2000/svg" viewBox="0 0 900 900">
  <defs>
    <style>
      .cls-1, .cls-2, .cls-3, .cls-4, .cls-5 {
        stroke-width: 0px;
      }

      .cls-1, .cls-6, .cls-7 {
        fill: #b39dde;
      }

      .cls-8 {
        opacity: .39;
      }

      .cls-2 {
        fill: #002c50;
      }

      .cls-3 {
        fill: #750595;
      }

      .cls-4 {
        fill: #03081f;
      }

      .cls-6 {
        font-size: 604.38px;
      }

      .cls-6, .cls-7 {
        font-family: ForteMT, Forte;
      }

      .cls-7 {
        font-size: 732.8px;
      }

      .cls-5 {
        fill: #02a4d2;
      }
    </style>
  </defs>
  <g>
    <circle class="cls-4" cx="449" cy="450" r="357"></circle>
    <path class="cls-4" d="M449.38,898.43C202.14,898.43,1,697.29,1,450.05S202.14,1.68,449.38,1.68s448.38,201.14,448.38,448.37-201.14,448.38-448.38,448.38ZM449.38,184.37c-146.5,0-265.69,119.18-265.69,265.68s119.18,265.69,265.69,265.69,265.69-119.18,265.69-265.69-119.18-265.68-265.69-265.68Z"></path>
  </g>
  <g>
    <path class="cls-2" d="M375.61,3.74c-17.6,20.24-28.34,46.61-28.34,75.54,0,63.66,51.61,115.28,115.28,115.28s115.28-51.61,115.28-115.28c0-28.93-10.73-55.3-28.34-75.54,47.08,29.15,78.46,81.25,78.46,140.7,0,91.35-74.05,165.4-165.4,165.4s-165.4-74.05-165.4-165.4c0-59.45,31.38-111.54,78.46-140.7Z"></path>
    <path class="cls-2" d="M462.54,312.57c-92.71,0-168.13-75.42-168.13-168.14,0-58.64,29.82-112.11,79.76-143.03,1.13-.71,2.63-.49,3.53.55.88,1.03.86,2.55-.02,3.57-17.84,20.51-27.67,46.7-27.67,73.74,0,62.05,50.48,112.54,112.53,112.54s112.54-50.48,112.54-112.54c0-27.04-9.83-53.23-27.67-73.74-.88-1.02-.9-2.54-.02-3.57.88-1.04,2.4-1.27,3.53-.55,49.94,30.93,79.76,84.39,79.76,143.03,0,92.71-75.42,168.14-168.14,168.14ZM363.32,15.55c-40,30.69-63.43,77.76-63.43,128.89,0,89.69,72.96,162.66,162.65,162.66s162.66-72.97,162.66-162.66c0-51.12-23.43-98.19-63.43-128.89,12.21,18.95,18.8,41.06,18.8,63.73,0,65.08-52.94,118.02-118.02,118.02s-118.01-52.94-118.01-118.02c0-22.68,6.59-44.79,18.79-63.73Z"></path>
  </g>
  <g class="cls-8">
    <g>
      <g>
        <path class="cls-3" d="M536.04,447c14.91,0,25.86-13.83,22.64-28.39-7.72-34.85-29.56-68.16-63.88-96.85l-13.24-11.07c-10.37-8.66-31.47-8.95-42.46-.58l-.18.13c-41.08,31.27-67.1,68.62-75.69,107.93-3.23,14.81,7.99,28.83,23.14,28.83h149.66Z"></path>
        <path class="cls-3" d="M535.46,450h-149.09c-8.01,0-15.46-3.57-20.47-9.81-5.14-6.4-7.05-14.73-5.25-22.84,8.86-39.94,35.35-77.64,76.59-109.03,12.09-9.21,34.81-8.88,46.06.52l13.25,11.07c34.67,28.97,57.11,63.11,64.88,98.75,1.63,7.49-.24,15.26-5.12,21.34-5.12,6.35-12.72,10-20.85,10ZM459.95,306.5c-7.17,0-14.34,1.83-19.2,5.53-40.38,30.72-66.16,67.33-74.74,105.99-1.44,6.48.08,13.12,4.17,18.23,3.95,4.93,9.86,7.76,16.19,7.76h149.09c6.47,0,12.52-2.9,16.58-7.95,3.85-4.78,5.32-10.88,4.04-16.74-7.52-34.43-29.32-67.53-63.04-95.71l-13.25-11.07c-4.8-4.01-12.32-6.04-19.85-6.04Z"></path>
      </g>
      <path class="cls-3" d="M549.29,450.22c-1.33,0-2.63-.74-3.27-2.02-.9-1.81-.17-4,1.63-4.9l54.48-27.23c15.64-7.81,28.6-20.69,36.5-36.27l38.55-75.88-63.89-43.84c-1.66-1.14-2.08-3.41-.94-5.08,1.14-1.67,3.41-2.09,5.08-.95l69.17,47.46-41.46,81.6c-8.61,16.96-22.73,30.99-39.75,39.49l-54.48,27.23c-.53.26-1.08.39-1.63.39Z"></path>
      <g>
        <path class="cls-3" d="M562.83,284.67l26.92,26.92c24.9,24.9,65.28,24.9,90.18,0h0c24.9-24.9,24.9-65.28,0-90.18l-26.92-26.92c-20.48-20.48-51.42-24.12-75.61-10.92-3.97,2.17,47.77,75.12,46.71,76.18,0,0-74.57-46.64-76.61-40.61-7.5,22.24-2.39,47.8,15.33,65.53Z"></path>
        <path class="cls-3" d="M634.84,332.98c-17.03,0-34.06-6.48-47.03-19.45l-26.93-26.92h0c-18-18.01-24.13-44.2-15.99-68.34.27-.8,1.36-1.87,2.15-2.15,6.19-2.21,42.3,18.96,68.8,35.28-2.51-3.82-5.57-8.42-8.59-12.94-27.19-40.77-33.61-51.62-32.71-55.27.19-.75.86-1.66,1.54-2.03,25.7-14.03,58.13-9.34,78.87,11.39l26.92,26.92c12.56,12.56,19.48,29.27,19.48,47.03s-6.92,34.47-19.48,47.03c-12.97,12.96-30,19.45-47.04,19.45ZM564.77,282.73l26.93,26.92c23.79,23.79,62.5,23.8,86.3,0,11.53-11.53,17.88-26.85,17.88-43.16s-6.35-31.62-17.88-43.15l-26.92-26.92c-18.61-18.61-47.5-23.11-70.81-11.27,2.8,7.13,21.31,34.89,31.56,50.26q16.21,24.3,14.22,26.27c-.9.9-2.3,1.06-3.39.38-30.73-19.22-65.24-38.92-73.03-40.61-6.75,21.75-1.02,45.1,15.14,61.28h0Z"></path>
      </g>
      <path class="cls-3" d="M371.95,450.22c-.55,0-1.11-.12-1.63-.39l-54.49-27.23c-17.01-8.5-31.14-22.53-39.75-39.49l-41.45-81.6,69.17-47.46c1.68-1.14,3.95-.72,5.08.95,1.14,1.66.72,3.94-.94,5.08l-63.88,43.84,38.54,75.88c7.92,15.58,20.88,28.46,36.51,36.27l54.49,27.23c1.81.9,2.53,3.1,1.63,4.9-.64,1.28-1.93,2.02-3.27,2.02Z"></path>
      <g>
        <path class="cls-3" d="M358.41,284.67l-26.92,26.92c-24.9,24.9-65.28,24.9-90.18,0h0c-24.9-24.9-24.9-65.28,0-90.18l26.92-26.92c20.48-20.48,51.42-24.12,75.62-10.92,3.97,2.17-47.77,75.12-46.71,76.18,0,0,74.57-46.64,76.61-40.61,7.5,22.24,2.39,47.8-15.33,65.53Z"></path>
        <path class="cls-3" d="M286.39,332.98c-17.03,0-34.06-6.48-47.04-19.45-25.92-25.93-25.92-68.13,0-94.06l26.93-26.92c20.74-20.73,53.16-25.41,78.87-11.39.67.37,1.36,1.28,1.54,2.03.9,3.65-5.53,14.5-32.75,55.31-3,4.51-6.05,9.08-8.56,12.89,26.52-16.32,62.81-37.36,68.79-35.28.79.29,1.88,1.36,2.15,2.15,8.15,24.14,2.02,50.33-15.99,68.34l-26.92,26.92c-12.97,12.97-30,19.45-47.04,19.45ZM313.47,178.6c-15.88,0-31.62,6.13-43.31,17.82l-26.93,26.92c-23.79,23.8-23.79,62.51,0,86.31,23.79,23.79,62.51,23.79,86.31,0l26.92-26.92h0c16.17-16.17,21.9-39.52,15.14-61.28-7.79,1.69-42.3,21.39-73.03,40.61-1.09.68-2.5.52-3.4-.39q-1.97-1.97,14.2-26.22c10.26-15.38,28.8-43.17,31.59-50.31-8.67-4.4-18.11-6.55-27.5-6.55Z"></path>
      </g>
      <g>
        <path class="cls-3" d="M461,308v109.73c0,15.94-12.92,28.86-28.86,28.86h0"></path>
        <path class="cls-3" d="M432.03,449.33c-1.51,0-2.74-1.23-2.74-2.74s1.23-2.74,2.74-2.74c14.4,0,26.12-11.72,25.97-26.12v-109.67c.15-1.51,1.38-2.74,2.89-2.74s2.74,1.23,2.11,2.74v109.67c.63,17.43-13.54,31.6-30.97,31.6Z"></path>
      </g>
      <g>
        <path class="cls-3" d="M461,308v109.73c0,15.94,12.92,28.86,28.86,28.86h0"></path>
        <path class="cls-3" d="M489.92,449.33c-17.43,0-31.61-14.17-30.92-31.6v-109.67c-.69-1.51.54-2.74,2.05-2.74s2.74,1.23,2.95,2.74v109.67c-.21,14.4,11.51,26.12,25.92,26.12,1.51,0,2.74,1.23,2.74,2.74s-1.23,2.74-2.74,2.74Z"></path>
      </g>
      <path class="cls-3" d="M663.73,590.99c-.64,0-1.3-.17-1.88-.53l-35.82-21.59c-7.18-4.32-15.69-5.91-23.94-4.42l-33.26,5.96c-1.95.32-3.88-.96-4.24-2.95-.36-1.98.96-3.88,2.95-4.24l33.26-5.96c10-1.81,20.3.11,29,5.36l35.82,21.59c1.73,1.03,2.28,3.28,1.24,5.01-.69,1.14-1.89,1.77-3.13,1.77Z"></path>
      <path class="cls-3" d="M646.73,660.35c-1.02,0-2.03-.42-2.75-1.25l-31.06-35.58c-4.52-5.18-10.74-8.69-17.52-9.88l-40.6-7.13c-1.98-.35-3.31-2.24-2.96-4.23.34-1.99,2.28-3.35,4.23-2.96l40.6,7.13c8.42,1.48,16.14,5.84,21.76,12.27l31.06,35.58c1.33,1.52,1.17,3.83-.35,5.16-.69.6-1.55.9-2.41.9Z"></path>
      <path class="cls-3" d="M595.07,719.1c-1.76,0-3.32-1.28-3.6-3.08l-5.99-37.93c-1.38-8.72-7-16.11-15.03-19.75l-16.52-7.51c-1.83-.83-2.65-3-1.81-4.84.84-1.84,3-2.63,4.84-1.81l16.52,7.51c10.27,4.67,17.46,14.11,19.23,25.26l5.99,37.93c.31,1.99-1.05,3.87-3.04,4.18-.19.03-.38.04-.58.04Z"></path>
      <path class="cls-3" d="M263.53,590.99c-1.23,0-2.44-.63-3.13-1.77-1.04-1.73-.49-3.97,1.24-5.01l35.83-21.59c8.69-5.25,18.98-7.18,28.99-5.36l33.26,5.96c1.99.36,3.31,2.26,2.95,4.24-.35,1.99-2.28,3.28-4.24,2.95l-33.26-5.96c-8.25-1.48-16.76.09-23.93,4.42l-35.83,21.59c-.59.36-1.24.53-1.88.53Z"></path>
      <path class="cls-3" d="M280.52,660.35c-.86,0-1.71-.3-2.4-.9-1.52-1.33-1.68-3.64-.35-5.16l31.06-35.58c5.62-6.43,13.35-10.79,21.76-12.27l40.6-7.13c1.93-.39,3.88.97,4.23,2.96.35,1.99-.98,3.88-2.96,4.23l-40.6,7.13c-6.78,1.19-13,4.7-17.52,9.88l-31.06,35.58c-.73.83-1.74,1.25-2.75,1.25Z"></path>
      <path class="cls-3" d="M332.19,719.1c-.19,0-.39-.01-.58-.04-1.99-.31-3.35-2.19-3.04-4.18l5.99-37.93c1.76-11.15,8.95-20.6,19.23-25.26l16.52-7.51c1.85-.82,4-.03,4.84,1.81.83,1.84.02,4-1.81,4.84l-16.52,7.51c-8.04,3.65-13.66,11.03-15.03,19.75l-5.99,37.93c-.28,1.8-1.84,3.08-3.6,3.08Z"></path>
      <g>
        <path class="cls-3" d="M487.47,303.21c0,7.45,6.04,13.48,13.48,13.48s13.48-6.04,13.48-13.48-6.04-13.48-13.48-13.48-13.48,6.04-13.48,13.48Z"></path>
        <path class="cls-3" d="M500.95,320.35c-9.45,0-17.14-7.69-17.14-17.14s7.69-17.14,17.14-17.14,17.13,7.69,17.13,17.14-7.69,17.14-17.13,17.14ZM500.95,293.38c-5.42,0-9.83,4.41-9.83,9.83s4.41,9.83,9.83,9.83,9.83-4.41,9.83-9.83-4.41-9.83-9.83-9.83Z"></path>
      </g>
      <g>
        <path class="cls-3" d="M437.48,303.21c0,7.45-6.04,13.48-13.48,13.48s-13.48-6.04-13.48-13.48,6.04-13.48,13.48-13.48,13.48,6.04,13.48,13.48Z"></path>
        <path class="cls-3" d="M423.99,320.35c-9.45,0-17.14-7.69-17.14-17.14s7.69-17.14,17.14-17.14,17.13,7.69,17.13,17.14-7.69,17.14-17.13,17.14ZM423.99,293.38c-5.42,0-9.83,4.41-9.83,9.83s4.41,9.83,9.83,9.83,9.83-4.41,9.83-9.83-4.41-9.83-9.83-9.83Z"></path>
      </g>
    </g>
    <g>
      <path class="cls-3" d="M440.37,465.39l4.4,195.89.55,24.49c.1,4.11-.16,7.19-.19,10.85.07,3.54-.32,7.04-.85,10.52-1.6,13.98-5.42,27.81-11.71,40.56-2.14,4.45-4.52,8.78-7.14,12.99-4.91,7.89-10.62,15.32-17.05,22.13-9.95,10.36-21.71,18.96-34.45,25.7-12.74,6.76-26.65,11.57-41.07,13.64-3.57.81-7.21,1.01-10.86,1.26-3.69.25-7.1.66-11.38.67l-24.49.55c-4.33.18-7.52-.05-11.11-.1-3.55.1-6.99-.77-10.51-1.06-3.49-.52-6.88-1.53-10.35-2.23-3.32-1.2-6.75-2.13-10.01-3.52-13.1-5.44-25.04-13.86-34.69-24.51-9.76-10.59-16.69-23.69-20.73-37.59-1.14-3.46-1.84-7.02-2.4-10.62-.82-3.56-.89-7.23-1.21-10.87-.4-7.19,0-14.07,1.9-20.86,3.53-13.5,11.52-26.02,22.78-34.78,5.57-4.39,11.81-8.1,18.6-10.42,3.38-1.12,6.82-2.3,10.38-2.8,1.78-.26,3.53-.78,5.34-.81l2.7-.2,1.35-.11.68-.05.34-.03h.17c.06-3.89.11,8.64.17-8.7-.07-17.34-.14-4.8-.21-8.67h-.21s-.43.02-.43.02l-.85.02-1.7.05-3.41.11c-2.28-.02-4.53.46-6.79.71-4.54.47-8.98,1.71-13.37,2.97-8.8,2.61-17.05,6.95-24.51,12.31-15.03,10.68-26.36,26.52-31.91,44.37-2.92,8.84-3.96,18.47-3.85,27.54.16,4.5.11,9.03.88,13.5.5,4.5,1.2,8.97,2.39,13.36,4.23,17.6,12.27,34.51,24.01,48.54,11.63,14.1,26.44,25.66,43.18,33.5,16.45,8.05,35.97,11.37,53.4,11.51l24.49.55c3.89.18,8.63-.05,13.09-.16,4.51-.11,9.03-.21,13.5-.96,18.01-1.81,35.71-6.98,52.16-14.74,16.45-7.76,31.84-18,45.12-30.63,13.2-12.7,24.44-27.48,33.17-43.72,8.87-16.18,14.77-34.05,17.74-52.34.87-4.57,1.57-9.16,1.75-13.8.29-4.5.75-9.56.83-13.61l.55-24.49,4.4-195.89c.33-14.51-11.17-26.54-25.69-26.87-14.51-.33-26.54,11.17-26.87,25.69,0,.36,0,.82,0,1.18Z"></path>
      <path class="cls-3" d="M314.25,858.54c-1.18,0-2.3-.02-3.38-.07l-24.43-.55c-19.95-.16-39.33-4.35-54.54-11.79-16.9-7.91-32.16-19.75-44.08-34.22-11.59-13.86-20.09-31.03-24.56-49.64-1.06-3.93-1.85-8.31-2.45-13.71-.62-3.61-.72-7.39-.81-11.04l-.08-2.66c-.13-10.53,1.21-20.1,3.98-28.5,5.75-18.48,17.46-34.73,32.93-45.73,8.19-5.88,16.71-10.16,25.32-12.7,3.99-1.14,8.93-2.55,13.86-3.07.7-.07,1.41-.17,2.11-.27,1.66-.24,3.42-.43,5-.45l4.78-.15c.56-.7,1.39-.76,1.96-.85,1.71.03,2.35.04,2.6,3.02h.07c0,.19-.02.36-.03.54.11,1.8.12,4.52.14,8.66-.01,3.92-.02,6.58-.11,8.39,0,.08,0,.16,0,.24h-.02c-.21,3.57-.83,3.58-2.65,3.6-.33.06-1.3-.13-1.84-.65l-3.33.25c-1.17.02-2.16.24-3.15.43-.66.13-1.33.26-2,.36-3.1.44-6.24,1.48-9.28,2.48-6.59,2.26-12.58,5.61-18.38,10.18-10.61,8.26-18.35,20.09-21.83,33.32-1.67,5.95-2.24,12.3-1.81,20.02l.2,2.63c.19,2.73.37,5.3.94,7.78.69,4.37,1.39,7.51,2.33,10.38,4.09,14.1,11.05,26.72,20.14,36.59,9.36,10.32,21.01,18.55,33.73,23.84,1.96.84,3.97,1.48,5.97,2.14,1.32.43,2.64.86,3.93,1.33,1.01.17,2.42.51,3.82.84,1.99.47,3.98.95,5.99,1.25,1.21.09,2.57.29,3.93.49,2.13.31,4.22.63,6.1.54l3.48.08c2.33.07,4.71.16,7.6.02l24.54-.55c3.04,0,5.59-.21,8.11-.42l3.85-.29c3.4-.22,6.6-.43,9.73-1.14,13.86-2,27.38-6.49,40.39-13.39,12.95-6.86,24.3-15.33,33.76-25.18,6.25-6.62,11.88-13.92,16.71-21.68,2.55-4.1,4.9-8.39,6.99-12.73,5.98-12.1,9.83-25.44,11.45-39.68.46-3.07.91-6.59.83-10.15.01-1.52.06-2.88.11-4.24.06-2.06.14-4.14.08-6.6l-4.95-220.38h0v-1.31c.18-7.75,3.36-14.97,8.96-20.33,5.62-5.36,12.94-8.24,20.71-8.04,15.99.36,28.72,13.67,28.37,29.67l-4.95,220.39c-.06,2.84-.3,6.19-.54,9.51l-.29,4.21c-.21,5.23-1.06,10.3-1.79,14.13-3.09,19.09-9.16,36.99-18.03,53.16-8.86,16.47-20.19,31.41-33.68,44.38-13.18,12.53-28.6,23-45.84,31.13-17.24,8.14-35.1,13.19-53.06,14.99-4.43.75-9.06.86-13.55.96l-3.13.09c-2.36.07-4.72.15-6.93.15ZM242.57,650c-1.46,0-2.8.2-4.16.39-.76.11-1.53.21-2.3.3-4.47.46-8.95,1.75-12.9,2.88-8,2.37-15.97,6.37-23.67,11.9-14.52,10.31-25.48,25.56-30.89,42.95-2.61,7.86-3.85,16.82-3.73,26.69l.08,2.65c.09,3.62.18,7.04.76,10.42.59,5.27,1.32,9.39,2.33,13.12,4.3,17.87,12.4,34.27,23.47,47.5,11.42,13.85,26.02,25.18,42.23,32.77,14.53,7.12,33.08,11.1,52.26,11.25l24.53.55c3.02.14,6.49.02,9.94-.07l3.01-.09c4.65-.11,8.89-.21,13.11-.92,17.52-1.76,34.77-6.64,51.45-14.51,16.71-7.89,31.65-18.03,44.4-30.14,13.07-12.57,24.06-27.05,32.65-43.04,8.57-15.64,14.44-32.95,17.45-51.49.7-3.71,1.52-8.53,1.71-13.46l.3-4.32c.24-3.21.48-6.47.53-9.23l4.95-220.39c.14-6.29-2.18-12.25-6.52-16.8-4.35-4.55-10.2-7.13-16.49-7.26-6.47-.24-12.26,2.18-16.8,6.52-4.55,4.35-7.13,10.2-7.27,16.49v1.06l4.95,220.37c.06,2.58-.01,4.75-.09,6.91-.04,1.31-.09,2.63-.1,4.02.08,3.89-.4,7.7-.88,10.9-1.69,14.77-5.72,28.72-11.97,41.36-2.16,4.5-4.61,8.96-7.26,13.22-5.02,8.06-10.87,15.66-17.39,22.57-9.88,10.29-21.71,19.12-35.16,26.24-13.58,7.2-27.7,11.88-41.96,13.93-3.33.77-6.91,1.01-10.37,1.23l-3.75.28c-2.67.22-5.36.44-8.5.44l-24.43.55c-3,.13-5.48.05-7.94-.02l-3.27-.08c-2.28.06-4.67-.27-6.94-.6-1.25-.19-2.51-.37-3.77-.47-2.35-.34-4.5-.85-6.64-1.36-1.33-.32-2.66-.64-4.01-.91-1.64-.57-2.9-.98-4.17-1.39-2.15-.71-4.3-1.41-6.38-2.3-13.44-5.57-25.77-14.29-35.65-25.19-9.65-10.47-17.03-23.85-21.33-38.66-1.01-3.08-1.78-6.49-2.48-10.97-.63-2.71-.83-5.62-1.03-8.43l-.2-2.63c-.46-8.42.17-15.34,1.99-21.84,3.76-14.34,12.2-27.22,23.74-36.2,6.28-4.95,12.81-8.6,19.4-10.85,3.91-1.3,7.29-2.43,10.88-2.93.56-.09,1.13-.2,1.71-.31,1.31-.26,2.63-.51,3.97-.53l2.69-.21c0-1.41.01-3.4.02-6.15,0-2.57-.02-4.47-.03-5.85l-3.96.12h-.13Z"></path>
    </g>
    <g>
      <rect class="cls-3" x="350" y="443" width="220" height="63" rx="4.3" ry="4.3" transform="translate(920 949) rotate(-180)"></rect>
      <path class="cls-3" d="M538.1,509h-156.65c-18.16,0-34.06-14.82-34.66-32.97-.66-20.04,14.93-36.03,34.18-36.03h156.65c18.16,0,34.06,14.82,34.66,32.97.66,20.04-14.93,36.03-34.18,36.03ZM381.45,446c-15.15,0-28.55,12.36-29.12,27.49-.65,17,12.47,30.51,28.67,30.51h156.63c15.15,0,28.55-12.36,29.12-27.49.65-17-12.47-30.51-28.67-30.51h-156.63Z"></path>
    </g>
    <g>
      <rect class="cls-3" x="369" y="507" width="181" height="63" rx="4.3" ry="4.3" transform="translate(919 1077) rotate(180)"></rect>
      <path class="cls-3" d="M518.54,573h-117.54c-18.15,0-34.05-14.82-34.65-32.96-.67-20.04,14.92-36.04,34.19-36.04h117.53c18.15,0,34.05,14.82,34.65,32.96.67,20.04-14.92,36.04-34.18,36.04ZM400.99,509c-15.14,0-28.54,12.35-29.12,27.48-.65,17,12.47,30.52,28.68,30.52h117.53c15.14,0,28.54-12.35,29.12-27.48.65-17-12.46-30.52-28.68-30.52h-117.53Z"></path>
    </g>
    <g>
      <path class="cls-3" d="M421.82,683h75.44c15.46,0,28-12.54,28-28h0c0-15.46-12.54-28-28-28h-75.44c-15.46,0-28,12.54-28,28h0c0,15.46,12.54,28,28,28Z"></path>
      <path class="cls-3" d="M496.95,686h-74.13c-16.62,0-30.71-13.01-31.18-29.62-.49-17.22,13.38-31.38,30.49-31.38h74.13c16.62,0,30.71,13.01,31.18,29.62s-13.38,31.38-30.49,31.38ZM422.18,630c-13.18,0-24.01,10.26-24.94,23.21-1.05,14.71,10.88,26.79,25.63,26.79h73.32c14.75,0,26.68-12.08,25.63-26.79-.92-12.95-11.76-23.21-24.94-23.21h-74.72Z"></path>
    </g>
    <g>
      <path class="cls-3" d="M435.29,718h48.5c9.94,0,18-8.06,18-18h0c0-9.94-8.06-18-18-18h-48.5c-9.94,0-18,8.06-18,18h0c0,9.94,8.06,18,18,18Z"></path>
      <path class="cls-3" d="M484.09,721h-48.92c-9.53,0-18.14-6.27-20.5-15.5-3.57-13.94,6.92-26.5,20.3-26.5h48.93c9.54,0,18.14,6.28,20.49,15.52,3.55,13.94-6.94,26.48-20.31,26.48ZM434.91,685c-9.83,0-17.56,9.2-15.01,19.44,1.71,6.88,8.11,11.56,15.19,11.56h48.9c7.08,0,13.48-4.68,15.19-11.56,2.55-10.25-5.18-19.44-15.01-19.44h-49.25Z"></path>
    </g>
    <g>
      <path class="cls-3" d="M444.72,740h29.64c6.08,0,11-4.92,11-11h0c0-6.08-4.92-11-11-11h-29.64c-6.08,0-11,4.92-11,11h0c0,6.08,4.92,11,11,11Z"></path>
      <path class="cls-3" d="M474.03,743h-28.63c-6.92,0-12.99-5.06-13.77-11.93-.92-8.14,5.45-15.07,13.41-15.07h28.63c6.92,0,12.99,5.06,13.77,11.93.92,8.14-5.45,15.07-13.41,15.07ZM445.07,721c-4.8,0-8.63,4.26-7.91,9.2.58,3.97,4.17,6.8,8.18,6.8h28.39c4.01,0,7.6-2.83,8.18-6.8.72-4.94-3.11-9.2-7.91-9.2h-28.93Z"></path>
    </g>
    <g>
      <path class="cls-3" d="M409.46,626h100.16c15.46,0,28-12.54,28-28h0c0-15.46-12.54-28-28-28h-100.16c-15.46,0-28,12.54-28,28h0c0,15.46,12.54,28,28,28Z"></path>
      <path class="cls-3" d="M509.2,628h-98.63c-16.62,0-30.71-13.01-31.18-29.62s13.38-31.38,30.49-31.38h98.63c16.62,0,30.71,13.01,31.18,29.62s-13.38,31.38-30.49,31.38ZM409.95,573c-13.18,0-24.02,10.26-24.94,23.21-1.05,14.71,10.88,26.79,25.63,26.79h97.79c14.75,0,26.68-12.08,25.63-26.79-.92-12.95-11.76-23.21-24.94-23.21h-99.18Z"></path>
    </g>
    <g>
      <path class="cls-3" d="M179.13,685.95l6.67,6.88c4.3,4.43,11.38,4.54,15.81.24h0c4.43-4.3,4.54-11.38.24-15.81l-6.67-6.88c-4.3-4.43-11.38-4.54-15.81-.24h0c-4.43,4.3-4.54,11.38-.24,15.81Z"></path>
      <path class="cls-3" d="M193.83,698.97c-.07,0-.14,0-.21,0-3.72-.05-7.19-1.56-9.78-4.22l-6.68-6.89h0c-5.34-5.51-5.2-14.34.3-19.68,5.52-5.35,14.35-5.21,19.69.3l6.67,6.88c2.59,2.66,3.98,6.18,3.92,9.9-.05,3.72-1.56,7.19-4.23,9.78-2.61,2.54-6.05,3.93-9.69,3.93ZM181.1,684.05l6.67,6.88c1.57,1.61,3.68,2.53,5.93,2.56,2.33-.08,4.38-.82,6-2.38,1.62-1.57,2.53-3.68,2.57-5.93.03-2.26-.81-4.39-2.38-6l-6.68-6.89c-3.23-3.32-8.58-3.43-11.93-.18-3.34,3.24-3.42,8.6-.18,11.94h0Z"></path>
    </g>
    <g>
      <path class="cls-3" d="M166.95,707.85l7.49,5.98c4.83,3.85,11.86,3.06,15.71-1.77h0c3.85-4.83,3.06-11.86-1.77-15.71l-7.49-5.98c-4.83-3.85-11.86-3.06-15.71,1.77h0c-3.85,4.83-3.06,11.86,1.77,15.71Z"></path>
      <path class="cls-3" d="M181.39,719.01c-3.04,0-6.1-.99-8.66-3.03l-7.49-5.98c-2.9-2.32-4.74-5.62-5.15-9.32-.41-3.7.64-7.33,2.95-10.24,2.31-2.9,5.62-4.74,9.32-5.15,3.7-.4,7.34.63,10.24,2.95l7.49,5.97c2.91,2.31,4.75,5.62,5.16,9.32.41,3.7-.64,7.34-2.95,10.24-2.74,3.45-6.8,5.24-10.9,5.24ZM173.94,690.96c-.32,0-.64.01-.96.05-2.24.26-4.25,1.36-5.65,3.13-1.41,1.76-2.04,3.97-1.79,6.21.26,2.24,1.36,4.25,3.13,5.65h0l7.49,5.98c3.63,2.88,8.96,2.29,11.86-1.33,1.41-1.77,2.04-3.97,1.79-6.22-.26-2.24-1.36-4.25-3.13-5.65l-7.49-5.97c-1.51-1.21-3.35-1.84-5.25-1.84Z"></path>
    </g>
    <g>
      <path class="cls-3" d="M427.31,762.04s8.5,19.13,33.3,12.4"></path>
      <path class="cls-3" d="M450.59,778.61c-18.66,0-25.71-15.28-25.78-15.46-.61-1.38,0-2.99,1.38-3.6,1.36-.61,3,0,3.62,1.36.31.69,8.01,16.91,30.09,10.88,1.47-.41,2.97.46,3.37,1.93.39,1.46-.47,2.97-1.93,3.37-3.95,1.07-7.52,1.53-10.75,1.53Z"></path>
    </g>
    <g>
      <path class="cls-3" d="M409.6,783.29s2.48,21.61,27.28,23.74"></path>
      <path class="cls-3" d="M436.88,809.77c-.08,0-.16,0-.24,0-26.72-2.3-29.74-25.92-29.77-26.15-.17-1.5.91-2.85,2.4-3.03,1.48-.12,2.86.9,3.04,2.4.1.79,2.62,19.43,24.79,21.32,1.51.14,2.63,1.46,2.5,2.97-.13,1.43-1.32,2.51-2.73,2.51Z"></path>
    </g>
    <g>
      <path class="cls-3" d="M382.64,804.2s-1.32,20.49,21.35,26.62"></path>
      <path class="cls-3" d="M403.99,833.57c-.24,0-.48-.03-.71-.09-24.56-6.65-23.39-29.22-23.37-29.45.1-1.5,1.2-2.51,2.9-2.55,1.51.09,2.65,1.39,2.57,2.9-.04.75-.81,18.36,19.33,23.81,1.46.4,2.33,1.91,1.93,3.36-.34,1.22-1.44,2.03-2.65,2.03Z"></path>
    </g>
    <g>
      <path class="cls-3" d="M351.31,818.37s-6.08,17.82,12.53,28.68"></path>
      <path class="cls-3" d="M363.85,849.79c-.47,0-.95-.12-1.38-.37-20.31-11.85-13.82-31.74-13.74-31.94.49-1.43,2.03-2.21,3.46-1.71,1.43.48,2.21,2.03,1.73,3.46-.21.65-5.05,15.89,11.33,25.44,1.31.76,1.75,2.44.99,3.75-.51.87-1.43,1.36-2.37,1.36Z"></path>
    </g>
    <g>
      <g>
        <path class="cls-3" d="M272.15,644.05c.04-.08-19.81-5.59-21.11-5.84-12.42-2.34-26.69-3.44-38.43,2.2-13.88,6.68-21.75,24.63-13.75,38.59,9.45,16.49,29.51,15.37,42.86,5.11,13.27-10.19,22.87-25.37,30.42-40.07Z"></path>
        <path class="cls-3" d="M220.62,694.39c-1.99,0-3.95-.19-5.87-.57-7.81-1.56-14.12-6.22-18.27-13.44-3.82-6.68-4.6-14.64-2.18-22.42,2.69-8.66,9.09-16.14,17.12-20.01,13.37-6.43,29.3-4.47,40.13-2.43.21.04,21.89,4.97,23.06,7.31.39.78.38,1.7-.02,2.48-6.22,12.09-16.22,29.5-31.19,40.99-6.83,5.24-15,8.09-22.77,8.09ZM233.02,639.04c-6.48,0-13.21.96-19.21,3.85-6.69,3.22-12.02,9.46-14.27,16.69-1.96,6.31-1.36,12.73,1.7,18.07,3.34,5.82,8.39,9.56,14.59,10.8,7.79,1.56,16.88-.86,24.22-6.5,12.94-9.93,22.09-24.83,28.12-36.2-5.5-1.56-16.51-4.6-17.65-4.84-4.99-.93-11.13-1.87-17.51-1.87Z"></path>
      </g>
      <g>
        <line class="cls-3" x1="233.52" y1="660.71" x2="270.72" y2="643.71"></line>
        <path class="cls-3" d="M233.52,663.45c-1.03,0-2.03-.59-2.49-1.6-.63-1.38-.03-3,1.35-3.63l37.19-17.01c1.36-.64,3-.03,3.63,1.35.63,1.38.03,3-1.35,3.63l-37.19,17.01c-.37.17-.76.25-1.14.25Z"></path>
      </g>
    </g>
  </g>
  <g>
    <path class="cls-5" d="M458.05,26.93l-15.97,32.37c-.73,1.48-2.14,2.51-3.78,2.74l-35.72,5.19c-4.11.6-5.76,5.66-2.78,8.56l25.85,25.19c1.18,1.15,1.72,2.81,1.44,4.44l-6.1,35.58c-.7,4.1,3.6,7.22,7.28,5.29l31.95-16.8c1.46-.77,3.21-.77,4.67,0l31.95,16.8c3.68,1.94,7.98-1.19,7.28-5.29l-6.1-35.58c-.28-1.63.26-3.29,1.44-4.44l25.85-25.19c2.98-2.9,1.33-7.96-2.78-8.56l-35.72-5.19c-1.63-.24-3.05-1.26-3.78-2.74l-15.97-32.37c-1.84-3.73-7.16-3.73-9,0Z"></path>
    <path class="cls-5" d="M499.17,149.62c-1.23,0-2.47-.3-3.62-.9l-31.95-16.8c-.66-.35-1.46-.35-2.11,0l-31.95,16.8c-2.63,1.38-5.76,1.16-8.17-.59-2.4-1.75-3.59-4.65-3.09-7.58l6.11-35.58c.12-.74-.12-1.49-.66-2.01l-25.85-25.2c-2.13-2.08-2.88-5.13-1.96-7.96.92-2.83,3.32-4.85,6.27-5.27l35.72-5.19c.74-.11,1.38-.57,1.71-1.24l15.99-32.37h0c1.31-2.67,3.98-4.32,6.95-4.32s5.64,1.66,6.96,4.32l15.97,32.37c.34.67.98,1.14,1.72,1.25l35.72,5.19c2.95.43,5.34,2.45,6.27,5.28.91,2.83.16,5.88-1.97,7.95l-25.84,25.2c-.54.52-.79,1.28-.66,2.02l6.1,35.58c.51,2.93-.67,5.83-3.08,7.58-1.36.99-2.95,1.5-4.56,1.5ZM462.54,126.18c1.24,0,2.48.3,3.62.9l31.94,16.79c1.14.61,2.05.08,2.4-.17.34-.25,1.12-.97.91-2.22l-6.1-35.58c-.44-2.52.4-5.08,2.23-6.86l25.84-25.2c.91-.89.71-1.93.58-2.33-.13-.4-.57-1.37-1.83-1.55l-35.72-5.19c-2.52-.37-4.7-1.95-5.84-4.24l-15.97-32.37c-.57-1.15-1.62-1.27-2.05-1.27s-1.47.12-2.04,1.27l-15.98,32.37c-1.12,2.28-3.3,3.87-5.83,4.24l-35.72,5.19c-1.26.18-1.71,1.14-1.84,1.55-.13.41-.34,1.44.58,2.34l25.85,25.2c1.83,1.78,2.66,4.34,2.23,6.86l-6.11,35.58c-.21,1.26.56,1.98.91,2.23.35.25,1.28.76,2.39.17l31.95-16.8c1.14-.6,2.38-.89,3.61-.89Z"></path>
  </g>
  <text class="cls-6" transform="translate(412.74 739.38)" svgjs:data="{&quot;leading&quot;:&quot;1.3&quot;}"><tspan x="0" y="0">L</tspan></text>
  <path class="cls-1" d="M747.46,223.68c-70.58,0-69.22,1.36-69.22-69.22,0,70.58,1.36,69.22-69.22,69.22,70.58,0,69.22-1.36,69.22,69.22,0-70.58-1.36-69.22,69.22-69.22Z"></path>
  <path class="cls-1" d="M804.22,584.36c-60.71,0-59.54,1.17-59.54-59.54,0,60.71,1.17,59.54-59.54,59.54,60.71,0,59.54-1.17,59.54,59.54,0-60.71-1.17-59.54,59.54-59.54Z"></path>
  <path class="cls-1" d="M268.4,431.13c-142.06,0-139.32,2.73-139.32-139.32,0,142.06,2.73,139.32-139.32,139.32,142.06,0,139.32-2.73,139.32,139.32,0-142.06-2.73-139.32,139.32-139.32Z"></path>
  <text class="cls-7" transform="translate(202.65 604.25)" svgjs:data="{&quot;leading&quot;:&quot;1.3&quot;}"><tspan x="0" y="0">T</tspan></text>
</svg><style>@media (prefers-color-scheme: light) { :root { filter: none; } }
@media (prefers-color-scheme: dark) { :root { filter: none; } }
</style></svg>