<svg xmlns="http://www.w3.org/2000/svg" xmlns:xlink="http://www.w3.org/1999/xlink" id="Layer_1" data-name="Layer 1" viewBox="0 0 1920 1080"><defs><style>.cls-1{fill:#f2f2f2}.cls-1,.cls-2{stroke-width:0}.cls-3{stroke:#9cd4e7;stroke-linecap:round;stroke-linejoin:round;stroke-width:.4px}.cls-2,.cls-3{fill:none}.cls-4{clip-path:url(#clippath)}</style><clipPath id="clippath"><path d="M2426.72,1523.44c-2.99-4.43-6.59-8.87-7.04-14.2-.81-9.85,9.5-18.8,6.75-28.28-1.14-3.91-4.27-6.83-6.66-10.09-6.77-9.29-7.6-21.45-9.71-32.76-2.12-11.29-8.58-20.76-17.43-28.1-17.69-14.66-28.37-32.78-26.94-50.31.51-6.19,3.19-12,6.18-17.44,16.71-30.54,44.82-58.11,44.01-92.9-.48-20.4-10.92-42.54-.35-60,2.72-4.48,6.7-8.3,8.12-13.33,1.4-4.98.03-10.27-1.22-15.29-10.69-42.58-13.86-87.03-9.34-130.71.87-8.47,2.04-16.93,1.98-25.44-.06-7.42-1.05-14.79-2.03-22.14-.53-3.94-1.07-7.93-2.74-11.53-4.08-8.8-13.94-13.5-19.14-21.67-10.21-16.03,15.37-33.54,11.93-52.24-1.47-8-9.21-13.8-7.38-21.72,1.82-7.93,7.2-14.62,13.41-19.88,6.2-5.27,14.27-11.68,12.12-19.54-1.08-3.91-4.58-6.78-5.62-10.69-2-7.47,5.47-14.01,7.14-21.55,1.82-8.14-3.28-16.03-7.86-22.99-10.64-16.18-18.82-33.77-27.23-51.2-26.26-54.44-26.89-117.03,4.74-162.47,8.33-11.99,19.05-24.58,17.19-39.06-1.04-8.11-6-15.17-8.37-23.01-2.38-7.96-2.08-16.71-5.61-24.23-3.54-7.52-14.18-2.19-20.15-7.96-8.06-7.77,3.18-22.2-3.75-30.99-6.94-8.78-16.69-14.87-24.45-22.95-25.26-26.37-24.44-68.24-15.8-103.73,3.95-16.22,9.22-32.94,5.85-49.28-5.9-28.56-35.9-46.48-44.95-74.22-9.48-29.05,6.31-59.84,22.69-85.64,16.37-25.81,34.67-54.06,30.44-84.33-1.04-7.49-3.49-14.99-2.33-22.47,2.27-14.7,17.13-23.76,24.51-36.69,17.8-31.17-10.65-77.32,13.37-103.99,5.67-6.31,13.61-10.37,18.73-17.14,9.97-13.24,6.16-31.77,7.47-48.29,2.97-37.31,33.35-66.81,46.77-101.36H-521.52c-.82,9.19,2.02,19.2,5.14,28.18,7.61,21.85,15.68,43.5,24.22,64.99,6.3,15.85,13.41,32.35,26.89,42.79,8.6,6.67,19.53,10.58,26.39,19.04,5.99,7.37,8.15,17.37,14.43,24.51,9.82,11.16,27.79,13.28,35.9,25.75,3.11,4.75,4.51,10.72,8.71,14.53,4.6,4.14,11.43,4.72,16.57,8.15,10.38,6.94,9.96,23.09,3.28,33.63-6.69,10.54-17.67,17.41-26.94,25.76-25.83,23.23-38.16,57.75-46.3,91.51-4.81,19.95-8.52,40.32-8.17,60.83.12,7.5.78,15.08-.75,22.44-1.94,9.45-7.32,17.77-12.61,25.85-8.68,13.29-17.36,26.57-26.05,39.86-7.51,11.5-17.33,31.54-4.98,37.58,6.9,3.4,12.01,9.51,12.53,17.18.54,7.67-1.4,15.43-.15,23.03.84,5.14,3.1,9.92,5.19,14.69,8.4,19.03,14.79,38.95,19,59.31,4.49,21.68,6.53,43.75,8.55,65.79,1.31,14.25,2.61,28.62.91,42.83-.74,6.11-1.99,12.56.45,18.21,2.43,5.65,10.82,5.68,19.46,8.23,19.75,5.82,23.76,35.25,19.46,55.37-1.82,8.48-5.6,16.78-4.76,25.4.77,7.73,5.2,14.66,6.49,22.33,1.64,9.67-1.88,19.39-5.33,28.58-5.1,13.6-10.21,27.19-15.31,40.78-3.09,8.22-6.48,16.85-13.42,22.21-5.17,3.99-12.93,7.59-12.09,14.07.3,2.15,1.59,4.07,1.86,6.21.6,4.65-3.49,8.37-6.57,11.91-11.58,13.31-10.61,35.71,2.1,47.98,4.08,3.93,9.27,7.1,11.49,12.3,4.94,11.62-14.06,27.45-5.43,36.67,14.07,15.04,27.41,29.06,31.66,49.22,1.62,7.66,3.23,15.31,4.85,22.97,1.8,8.54,3.65,17.23,7.87,24.87,7.01,12.79,20.62,23.05,21,37.63.24,9.44-5.31,17.89-9.22,26.48-3.92,8.59-6.02,19.72-.75,29.64,8.22,15.41,16.93,31.85,15.3,49.24-1.87,20.28-17.34,37.29-19.74,57.52-.6,5.13-.4,10.52-2.6,15.19-3.92,8.32-14.46,12.21-17.66,20.82-3.11,8.34,1.86,17.82-.33,26.44-1.89,7.51-8.73,12.62-15.43,16.48-6.71,3.86-14.05,7.35-18.47,13.7-4.41,6.36-4.22,16.73,2.6,20.39,2.51,1.35,5.58,1.63,7.76,3.47,3.12,2.6,3.3,7.25,4.97,10.94,3.05,6.74,11.05,10.16,14.22,16.85,4.14,8.75-1.49,18.81-2.09,28.48-.98,15.92,11.89,30.29,10.67,46.2-.88,11.41-8.77,20.81-15.12,30.35-11.53,17.33-18.69,37.13-25.74,56.71-3.25,9.02-6.52,18.13-7.68,27.64-1.58,13.25,1.02,26.63,4.13,39.59,5.35,22.31,12.31,44.21,20.65,65.57h2869.73c.33-15.2-3.98-30.48-12.5-43.06Z" class="cls-2"/></clipPath></defs><rect width="1920" height="1080" class="cls-1"/><g><path d="M2305.41,1523.44c-2.99-4.43-6.59-8.87-7.04-14.2-.81-9.85,9.5-18.8,6.75-28.28-1.14-3.91-4.27-6.83-6.66-10.09-6.77-9.29-7.6-21.45-9.71-32.76-2.12-11.29-8.58-20.76-17.43-28.1-17.69-14.66-28.37-32.78-26.94-50.31.51-6.19,3.19-12,6.18-17.44,16.71-30.54,44.82-58.11,44.01-92.9-.48-20.4-10.92-42.54-.35-60,2.72-4.48,6.7-8.3,8.12-13.33,1.4-4.98.03-10.27-1.22-15.29-10.69-42.58-13.86-87.03-9.34-130.71.87-8.47,2.04-16.93,1.98-25.44-.06-7.42-1.05-14.79-2.03-22.14-.53-3.94-1.07-7.93-2.74-11.53-4.08-8.8-13.94-13.5-19.14-21.67-10.21-16.03,15.37-33.54,11.93-52.24-1.47-8-9.21-13.8-7.38-21.72,1.82-7.93,7.2-14.62,13.41-19.88,6.2-5.27,14.27-11.68,12.12-19.54-1.08-3.91-4.58-6.78-5.62-10.69-2-7.47,5.47-14.01,7.14-21.55,1.82-8.14-3.28-16.03-7.86-22.99-10.64-16.18-18.82-33.77-27.23-51.2-26.26-54.44-26.89-117.03,4.74-162.47,8.33-11.99,19.05-24.58,17.19-39.06-1.04-8.11-6-15.17-8.37-23.01-2.38-7.96-2.08-16.71-5.61-24.23s-14.18-2.19-20.15-7.96c-8.06-7.77,3.18-22.2-3.75-30.99-6.94-8.78-16.69-14.87-24.45-22.95-25.26-26.37-24.44-68.24-15.8-103.73,3.95-16.22,9.22-32.94,5.85-49.28-5.9-28.56-35.9-46.48-44.95-74.22-9.48-29.05,6.31-59.84,22.69-85.64,16.37-25.81,34.67-54.06,30.44-84.33-1.04-7.49-3.49-14.99-2.33-22.47,2.27-14.7,17.13-23.76,24.51-36.69,17.8-31.17-10.65-77.32,13.37-103.99,5.67-6.31,13.61-10.37,18.73-17.14,9.97-13.24,6.16-31.77,7.47-48.29,2.97-37.31,33.35-66.81,46.77-101.36H-642.82c-.82,9.19,2.02,19.2,5.14,28.18,7.61,21.85,15.68,43.5,24.22,64.99,6.3,15.85,13.41,32.35,26.89,42.79,8.6,6.67,19.53,10.58,26.39,19.04,5.99,7.37,8.15,17.37,14.43,24.51,9.82,11.16,27.79,13.28,35.9,25.75,3.11,4.75,4.51,10.72,8.71,14.53,4.6,4.14,11.43,4.72,16.57,8.15,10.38,6.94,9.96,23.09,3.28,33.63-6.69,10.54-17.67,17.41-26.94,25.76-25.83,23.23-38.16,57.75-46.3,91.51-4.81,19.95-8.52,40.32-8.17,60.83.12,7.5.78,15.08-.75,22.44-1.94,9.45-7.32,17.77-12.61,25.85-8.68,13.29-17.36,26.57-26.05,39.86-7.51,11.5-17.33,31.54-4.98,37.58,6.9,3.4,12.01,9.51,12.53,17.18.54,7.67-1.4,15.43-.15,23.03.84,5.14,3.1,9.92,5.19,14.69,8.4,19.03,14.79,38.95,19,59.31,4.49,21.68,6.53,43.75,8.55,65.79,1.31,14.25,2.61,28.62.91,42.83-.74,6.11-1.99,12.56.45,18.21,2.43,5.65,10.82,5.68,19.46,8.23,19.75,5.82,23.76,35.25,19.46,55.37-1.82,8.48-5.6,16.78-4.76,25.4.77,7.73,5.2,14.66,6.49,22.33,1.64,9.67-1.88,19.39-5.33,28.58-5.1,13.6-10.21,27.19-15.31,40.78-3.09,8.22-6.48,16.85-13.42,22.21-5.17,3.99-12.93,7.59-12.09,14.07.3,2.15,1.59,4.07,1.86,6.21.6,4.65-3.49,8.37-6.57,11.91-11.58,13.31-10.61,35.71,2.1,47.98,4.08,3.93,9.27,7.1,11.49,12.3,4.94,11.62-14.06,27.45-5.43,36.67,14.07,15.04,27.41,29.06,31.66,49.22,1.62,7.66,3.23,15.31,4.85,22.97,1.8,8.54,3.65,17.23,7.87,24.87,7.01,12.79,20.62,23.05,21,37.63.24,9.44-5.31,17.89-9.22,26.48-3.92,8.59-6.02,19.72-.75,29.64,8.22,15.41,16.93,31.85,15.3,49.24-1.87,20.28-17.34,37.29-19.74,57.52-.6,5.13-.4,10.52-2.6,15.19-3.92,8.32-14.46,12.21-17.66,20.82-3.11,8.34,1.86,17.82-.33,26.44-1.89,7.51-8.73,12.62-15.43,16.48-6.71,3.86-14.05,7.35-18.47,13.7-4.41,6.36-4.22,16.73,2.6,20.39,2.51,1.35,5.58,1.63,7.76,3.47,3.12,2.6,3.3,7.25,4.97,10.94,3.05,6.74,11.05,10.16,14.22,16.85,4.14,8.75-1.49,18.81-2.09,28.48-.98,15.92,11.89,30.29,10.67,46.2-.88,11.41-8.77,20.81-15.12,30.35-11.53,17.33-18.69,37.13-25.74,56.71-3.25,9.02-6.52,18.13-7.68,27.64-1.58,13.25,1.02,26.63,4.13,39.59,5.35,22.31,12.31,44.21,20.65,65.57h2869.73c.33-15.2-3.98-30.48-12.5-43.06Z" class="cls-1"/><g class="cls-4"><g><line x1="81.43" x2="81.43" y1="-329.13" y2="1624.55" class="cls-3"/><line x1="178.21" x2="178.21" y1="-329.13" y2="1624.55" class="cls-3"/><line x1="274.99" x2="274.99" y1="-329.13" y2="1624.55" class="cls-3"/><line x1="371.78" x2="371.78" y1="-329.13" y2="1624.55" class="cls-3"/><line x1="468.56" x2="468.56" y1="-329.13" y2="1624.55" class="cls-3"/><line x1="565.34" x2="565.34" y1="-329.13" y2="1624.55" class="cls-3"/><line x1="662.12" x2="662.12" y1="-329.13" y2="1624.55" class="cls-3"/><line x1="758.91" x2="758.91" y1="-329.13" y2="1624.55" class="cls-3"/><line x1="855.69" x2="855.69" y1="-329.13" y2="1624.55" class="cls-3"/><line x1="952.47" x2="952.47" y1="-329.13" y2="1624.55" class="cls-3"/><line x1="1049.26" x2="1049.26" y1="-329.13" y2="1624.55" class="cls-3"/><line x1="1146.04" x2="1146.04" y1="-329.13" y2="1624.55" class="cls-3"/><line x1="1242.82" x2="1242.82" y1="-329.13" y2="1624.55" class="cls-3"/><line x1="1339.6" x2="1339.6" y1="-329.13" y2="1624.55" class="cls-3"/><line x1="1436.39" x2="1436.39" y1="-329.13" y2="1624.55" class="cls-3"/><line x1="1533.17" x2="1533.17" y1="-329.13" y2="1624.55" class="cls-3"/><line x1="1629.95" x2="1629.95" y1="-329.13" y2="1624.55" class="cls-3"/><line x1="1726.73" x2="1726.73" y1="-329.13" y2="1624.55" class="cls-3"/><line x1="1823.52" x2="1823.52" y1="-329.13" y2="1624.55" class="cls-3"/><line x1="-596.05" x2="2578.45" y1="1025.83" y2="1025.83" class="cls-3"/><line x1="-596.05" x2="2578.45" y1="929.04" y2="929.04" class="cls-3"/><line x1="-596.05" x2="2578.45" y1="832.26" y2="832.26" class="cls-3"/><line x1="-596.05" x2="2578.45" y1="735.48" y2="735.48" class="cls-3"/><line x1="-596.05" x2="2578.45" y1="638.7" y2="638.7" class="cls-3"/><line x1="-596.05" x2="2578.45" y1="541.91" y2="541.91" class="cls-3"/><line x1="-596.05" x2="2578.45" y1="445.13" y2="445.13" class="cls-3"/><line x1="-596.05" x2="2578.45" y1="348.35" y2="348.35" class="cls-3"/><line x1="-596.05" x2="2578.45" y1="251.57" y2="251.57" class="cls-3"/><line x1="-596.05" x2="2578.45" y1="154.78" y2="154.78" class="cls-3"/><line x1="-596.05" x2="2578.45" y1="58" y2="58" class="cls-3"/></g></g></g></svg>